<?xml version="1.0" standalone="no"?>
<!DOCTYPE svg PUBLIC "-//W3C//DTD SVG 20010904//EN"
 "http://www.w3.org/TR/2001/REC-SVG-20010904/DTD/svg10.dtd">
<svg version="1.0" xmlns="http://www.w3.org/2000/svg"
 width="299.000000pt" height="299.000000pt" viewBox="0 0 299.000000 299.000000"
 preserveAspectRatio="xMidYMid meet">
<metadata>
Created by potrace 1.14, written by Peter Selinger 2001-2017
</metadata>
<g transform="translate(0.000000,299.000000) scale(0.100000,-0.100000)"
fill="#000000" stroke="none">
<path d="M1594 2971 c-58 -21 -79 -34 -186 -112 -62 -46 -83 -56 -110 -54 -70
5 -157 18 -242 36 -105 22 -96 21 -96 10 0 -10 121 -59 210 -85 94 -28 97 -18
-43 -166 -34 -36 -102 -114 -151 -173 -60 -72 -95 -107 -105 -104 -9 3 -56 17
-106 31 -143 43 -257 39 -361 -10 -81 -38 -111 -102 -84 -180 22 -61 127 -103
246 -99 131 5 236 45 308 116 21 22 45 39 53 39 9 0 41 -15 72 -34 149 -89
268 -135 466 -180 153 -34 172 -37 330 -43 134 -5 169 -1 340 32 181 36 555
171 540 195 -4 7 -13 6 -27 -1 -37 -20 -336 -114 -398 -126 -13 -2 -56 -11
-95 -19 -113 -25 -162 -29 -315 -29 -135 1 -214 8 -300 28 -150 34 -541 198
-565 237 -8 13 99 138 293 341 l93 97 97 -5 c167 -9 295 32 358 115 31 39 35
62 20 110 -16 50 -145 68 -242 33z m157 -73 c12 -20 -8 -44 -55 -67 -70 -33
-141 -43 -220 -32 -19 2 28 40 82 67 104 51 174 63 193 32z m-983 -624 c28 -9
52 -20 52 -24 0 -12 -45 -48 -87 -69 -24 -12 -43 -19 -43 -16 0 2 -12 0 -26
-6 -15 -5 -61 -10 -104 -10 -117 -1 -180 34 -159 88 16 44 89 64 219 58 52 -2
119 -11 148 -21z"/>
<path d="M2328 2875 c-5 -6 -3 -72 7 -165 9 -88 16 -171 19 -226 l2 -50 -75 3
c-93 5 -140 -15 -157 -68 -28 -84 59 -154 180 -143 27 3 47 0 47 -6 1 -5 3
-14 4 -20 1 -5 3 -17 4 -25 0 -8 7 -15 15 -15 9 0 21 25 32 68 15 54 19 102
19 247 0 194 -8 279 -31 334 -22 52 -51 81 -66 66z m25 -535 l22 -18 -20 -22
c-17 -18 -28 -21 -68 -17 -44 4 -87 28 -87 49 0 29 119 35 153 8z"/>
<path d="M376 2688 c-24 -13 -19 -28 9 -28 l25 0 -23 -37 c-13 -21 -27 -44
-31 -50 -5 -10 7 -13 52 -13 52 0 60 3 65 21 4 16 1 20 -16 19 -39 -4 -39 -1
-13 44 14 25 26 46 26 48 0 8 -79 4 -94 -4z"/>
<path d="M503 2693 c-8 -3 -13 -25 -13 -57 0 -65 22 -90 68 -76 4 1 17 1 30 0
21 -1 22 2 22 63 0 46 -4 66 -14 70 -21 8 -26 -2 -26 -49 0 -27 -5 -44 -14
-47 -21 -8 -26 2 -26 55 0 47 -3 51 -27 41z"/>
<path d="M630 2628 c0 -61 2 -68 20 -68 16 0 20 7 21 35 2 54 3 58 17 63 8 2
12 -11 12 -47 0 -27 4 -52 8 -55 18 -11 36 15 37 55 1 64 25 63 25 0 0 -44 3
-51 20 -51 11 0 21 6 21 13 5 48 0 100 -10 110 -6 6 -46 11 -91 12 l-80 1 0
-68z"/>
<path d="M1580 2467 c0 -8 7 -20 16 -28 27 -22 44 -65 54 -140 6 -40 13 -75
15 -78 3 -2 19 -4 37 -4 26 0 39 8 67 44 20 24 51 59 70 77 41 41 45 38 105
-75 29 -53 56 -88 85 -110 61 -47 84 -42 40 8 -39 44 -69 99 -96 172 -14 40
-34 80 -43 90 -39 42 -130 20 -173 -40 -23 -32 -27 -34 -33 -17 -19 58 -29 76
-53 92 -34 23 -91 29 -91 9z"/>
<path d="M1310 2422 c-111 -56 -102 -213 14 -227 34 -5 42 -1 73 31 l34 37 39
-43 c22 -25 45 -40 55 -38 14 2 11 10 -17 48 -18 25 -39 57 -46 73 -15 35 -50
36 -82 2 -29 -31 -67 -31 -62 0 2 11 10 26 17 34 12 12 25 15 83 20 21 2 14
49 -10 65 -29 21 -55 20 -98 -2z"/>
<path d="M751 1836 c-83 -27 -104 -153 -32 -190 22 -12 26 -21 25 -48 -1 -18
-2 -35 -3 -38 -1 -3 -20 -5 -43 -5 -75 1 -228 -30 -228 -45 0 -3 19 -6 43 -6
23 0 68 -3 101 -6 39 -4 72 -1 100 8 62 22 153 20 216 -6 22 -8 56 -17 83 -19
4 -1 7 -10 7 -22 0 -17 -4 -20 -27 -15 -16 4 -39 9 -53 12 -35 7 -369 8 -376
1 -12 -12 44 -56 82 -65 190 -45 246 -60 364 -101 127 -44 136 -48 152 -81 9
-21 47 -60 89 -94 66 -52 77 -58 110 -53 66 9 309 136 309 162 0 8 -43 30
-110 56 -84 33 -110 47 -110 61 0 10 1 18 3 18 5 0 105 -39 176 -69 41 -17 78
-31 82 -31 25 0 1 19 -66 53 -42 22 -77 47 -80 58 -4 13 -16 19 -36 19 -16 0
-30 -1 -31 -2 -6 -3 -48 23 -48 30 0 4 18 8 40 9 56 3 123 35 152 74 30 40 38
61 44 114 3 22 7 52 9 68 6 51 -13 27 -34 -40 -19 -65 -66 -133 -90 -133 -6 0
-11 21 -12 48 -1 66 -11 95 -34 102 -36 10 -84 40 -95 60 -9 18 -6 20 40 26
54 7 57 10 37 39 -19 25 -81 27 -137 3 -80 -34 -114 -79 -119 -159 -4 -82 48
-168 114 -185 13 -3 26 -12 29 -20 5 -12 1 -12 -27 0 -110 48 -126 57 -121 71
7 18 -34 36 -96 40 -60 4 -60 4 -24 19 53 23 114 106 114 156 0 30 -13 24 -34
-15 -11 -19 -22 -35 -26 -35 -4 0 -11 15 -16 32 -5 18 -19 37 -29 43 -11 5
-31 17 -43 27 l-24 16 22 22 c21 21 21 24 6 32 -22 12 -74 1 -108 -23 -55 -39
-76 -172 -34 -218 9 -10 16 -20 16 -22 0 -9 -165 -6 -171 3 -3 5 -4 22 -1 38
3 20 8 27 18 23 21 -8 82 37 95 70 15 36 8 42 -19 17 -30 -28 -39 -25 -46 13
-4 24 -15 38 -33 46 l-27 13 23 17 c19 15 21 20 10 27 -21 13 -31 13 -68 0z
m495 -407 c111 -36 149 -58 131 -75 -3 -3 -43 6 -88 20 -46 14 -111 31 -144
38 -50 11 -61 17 -63 36 -5 32 17 29 164 -19z"/>
<path d="M2520 1764 c-189 -61 -324 -73 -474 -44 -121 23 -229 26 -249 6 -13
-13 -13 -22 -2 -58 22 -77 8 -116 -70 -194 -96 -94 -85 -141 30 -132 40 3 73
17 146 59 117 69 117 69 203 75 186 12 340 68 415 149 67 73 99 157 59 154 -7
-1 -33 -7 -58 -15z"/>
<path d="M2291 1411 c-38 -20 -63 -24 -151 -27 -58 -1 -110 -3 -117 -3 -6 -1
-25 -12 -41 -26 -17 -14 -36 -25 -44 -25 -19 0 -141 -64 -213 -112 -66 -45
-232 -204 -222 -214 3 -3 18 3 34 14 15 11 51 31 80 46 29 14 56 32 60 40 11
20 120 89 163 104 19 7 51 23 71 36 31 21 136 60 193 72 11 2 40 10 65 19 43
13 153 41 211 52 13 2 55 11 93 19 37 8 86 14 108 14 21 0 39 4 39 8 0 4 -64
8 -141 8 -129 -1 -146 -3 -188 -25z"/>
<path d="M2589 1366 c-2 -2 -38 -7 -79 -10 -41 -3 -86 -8 -100 -11 -13 -2 -42
-7 -65 -10 -40 -6 -73 -11 -130 -21 -101 -17 -220 -56 -319 -105 -120 -60
-302 -194 -327 -242 -11 -19 -8 -19 88 -13 181 13 263 24 288 40 11 8 67 60
123 116 l103 103 137 49 c75 27 169 59 207 70 59 18 103 38 84 38 -3 0 -8 -2
-10 -4z"/>
<path d="M785 803 c-22 -25 -44 -51 -50 -57 -50 -56 -122 -178 -160 -271 -80
-200 -67 -343 34 -395 78 -39 167 5 313 153 47 47 79 74 82 65 47 -175 89
-253 152 -283 93 -44 176 28 219 190 27 106 14 289 -29 387 l-14 33 -2 -60
c-2 -33 -4 -69 -5 -80 -1 -11 -5 -54 -9 -95 -10 -106 -32 -213 -51 -250 -18
-34 -55 -56 -79 -47 -25 10 -54 65 -76 142 -54 189 -67 213 -111 196 -13 -5
-45 -33 -70 -63 -86 -98 -185 -196 -217 -212 -43 -22 -66 -20 -99 8 -25 22
-28 30 -27 88 2 77 44 237 89 335 18 39 63 115 99 167 71 103 76 124 11 49z"/>
<path d="M2398 778 c-26 -30 -39 -59 -52 -120 -7 -29 -29 -35 -71 -19 -28 11
-45 3 -45 -24 0 -28 29 -54 63 -57 28 -2 28 0 8 -113 -17 -97 6 -405 30 -405
5 0 9 26 10 58 1 31 2 71 4 87 12 138 17 191 20 196 2 3 7 33 10 68 7 74 20
111 38 111 8 0 36 11 63 25 27 14 64 30 83 36 50 17 20 28 -65 23 l-73 -4 5
33 c3 17 10 47 14 64 18 70 -1 89 -42 41z"/>
<path d="M1638 578 c-32 -25 -23 -92 14 -104 46 -14 82 83 39 106 -25 13 -34
13 -53 -2z"/>
<path d="M1612 309 c-34 -13 -53 -67 -46 -131 7 -69 20 -119 37 -143 13 -17
15 -16 25 16 10 31 32 181 32 219 0 30 -23 49 -48 39z"/>
<path d="M2010 284 c-14 -12 -32 -34 -39 -48 -18 -32 -31 -33 -31 -3 0 13 -6
32 -14 43 -13 17 -16 17 -30 4 -21 -21 -34 -87 -34 -172 0 -87 4 -98 33 -98
37 0 72 54 94 145 19 80 53 124 102 131 28 5 36 10 27 15 -23 15 -80 6 -108
-17z"/>
</g>
</svg>
